REM DIRINDEX 1\2,1\3,1\4,1\5
REM DIRNAME folder01,folder02,folder03,folder04,folder05
TITLE ""
FILE "1Q_t_0210-0219.mp3" MP3
  TRACK 01 AUDIO
    TITLE "3:cjc004_1530"
    INDEX 01 00:00:00
  TRACK 02 AUDIO
    TITLE "0:"
    INDEX 01 00:00:74
  TRACK 03 AUDIO
    TITLE "4:cjc004_1531"
    INDEX 01 00:01:22
  TRACK 04 AUDIO
    TITLE "0:"
    INDEX 01 00:02:59
  TRACK 05 AUDIO
    TITLE "5:cjc004_1532"
    INDEX 01 00:03:10
  TRACK 06 AUDIO
    TITLE "0:"
    INDEX 01 00:07:11
  TRACK 07 AUDIO
    TITLE "3:cjc004_1533"
    INDEX 01 00:07:62
  TRACK 08 AUDIO
    TITLE "0:"
    INDEX 01 00:08:66
  TRACK 09 AUDIO
    TITLE "4:cjc004_1534"
    INDEX 01 00:09:22
  TRACK 10 AUDIO
    TITLE "0:"
    INDEX 01 00:11:11
  TRACK 11 AUDIO
    TITLE "5:cjc004_1535"
    INDEX 01 00:11:37
  TRACK 12 AUDIO
    TITLE "0:"
    INDEX 01 00:16:12
  TRACK 13 AUDIO
    TITLE "3:cjc004_1536"
    INDEX 01 00:16:67
  TRACK 14 AUDIO
    TITLE "0:"
    INDEX 01 00:18:19
  TRACK 15 AUDIO
    TITLE "4:cjc004_1537"
    INDEX 01 00:18:31
  TRACK 16 AUDIO
    TITLE "0:"
    INDEX 01 00:19:50
  TRACK 17 AUDIO
    TITLE "5:cjc004_1538"
    INDEX 01 00:20:06
  TRACK 18 AUDIO
    TITLE "0:"
    INDEX 01 00:25:05
  TRACK 19 AUDIO
    TITLE "3:cjc004_1539"
    INDEX 01 00:25:60
  TRACK 20 AUDIO
    TITLE "0:"
    INDEX 01 00:26:67
  TRACK 21 AUDIO
    TITLE "4:cjc004_1540"
    INDEX 01 00:27:22
  TRACK 22 AUDIO
    TITLE "0:"
    INDEX 01 00:29:03
  TRACK 23 AUDIO
    TITLE "5:cjc004_1541"
    INDEX 01 00:29:27
  TRACK 24 AUDIO
    TITLE "0:"
    INDEX 01 00:33:48
  TRACK 25 AUDIO
    TITLE "3:cjc004_1542"
    INDEX 01 00:34:30
  TRACK 26 AUDIO
    TITLE "0:"
    INDEX 01 00:35:47
  TRACK 27 AUDIO
    TITLE "4:cjc004_1543"
    INDEX 01 00:35:66
  TRACK 28 AUDIO
    TITLE "0:"
    INDEX 01 00:37:20
  TRACK 29 AUDIO
    TITLE "5:cjc004_1544"
    INDEX 01 00:37:46
  TRACK 30 AUDIO
    TITLE "0:"
    INDEX 01 00:42:27
  TRACK 31 AUDIO
    TITLE "3:cjc004_1545"
    INDEX 01 00:43:11
  TRACK 32 AUDIO
    TITLE "0:"
    INDEX 01 00:44:22
  TRACK 33 AUDIO
    TITLE "4:cjc004_1546"
    INDEX 01 00:44:44
  TRACK 34 AUDIO
    TITLE "0:"
    INDEX 01 00:45:63
  TRACK 35 AUDIO
    TITLE "5:cjc004_1547"
    INDEX 01 00:46:11
  TRACK 36 AUDIO
    TITLE "0:"
    INDEX 01 00:50:66
  TRACK 37 AUDIO
    TITLE "3:cjc004_1548"
    INDEX 01 00:51:44
  TRACK 38 AUDIO
    TITLE "0:"
    INDEX 01 00:52:51
  TRACK 39 AUDIO
    TITLE "4:cjc004_1549"
    INDEX 01 00:53:04
  TRACK 40 AUDIO
    TITLE "0:"
    INDEX 01 00:54:13
  TRACK 41 AUDIO
    TITLE "5:cjc004_1550"
    INDEX 01 00:54:30
  TRACK 42 AUDIO
    TITLE "0:"
    INDEX 01 00:58:67
  TRACK 43 AUDIO
    TITLE "3:cjc004_1551"
    INDEX 01 00:59:41
  TRACK 44 AUDIO
    TITLE "0:"
    INDEX 01 01:00:64
  TRACK 45 AUDIO
    TITLE "4:cjc004_1552"
    INDEX 01 01:01:17
  TRACK 46 AUDIO
    TITLE "0:"
    INDEX 01 01:02:44
  TRACK 47 AUDIO
    TITLE "5:cjc004_1553"
    INDEX 01 01:03:00
  TRACK 48 AUDIO
    TITLE "0:"
    INDEX 01 01:07:70
  TRACK 49 AUDIO
    TITLE "3:cjc004_1554"
    INDEX 01 01:08:56
  TRACK 50 AUDIO
    TITLE "0:"
    INDEX 01 01:09:56
  TRACK 51 AUDIO
    TITLE "4:cjc004_1555"
    INDEX 01 01:10:10
  TRACK 52 AUDIO
    TITLE "0:"
    INDEX 01 01:11:35
  TRACK 53 AUDIO
    TITLE "5:cjc004_1556"
    INDEX 01 01:11:66
  TRACK 54 AUDIO
    TITLE "0:"
    INDEX 01 01:16:60
  TRACK 55 AUDIO
    TITLE "3:cjc004_1557"
    INDEX 01 01:17:47
  TRACK 56 AUDIO
    TITLE "0:"
    INDEX 01 01:18:47
  TRACK 57 AUDIO
    TITLE "4:cjc004_1558"
    INDEX 01 01:19:03
  TRACK 58 AUDIO
    TITLE "0:"
    INDEX 01 01:20:32
  TRACK 59 AUDIO
    TITLE "5:cjc004_1559"
    INDEX 01 01:20:59
  TRACK 60 AUDIO
    TITLE "0:"
    INDEX 01 01:25:19
